<svg xmlns="http://www.w3.org/2000/svg" xmlns:xlink="http://www.w3.org/1999/xlink" width="1080" zoomAndPan="magnify" viewBox="0 0 810 809.999993" height="1080" preserveAspectRatio="xMidYMid meet" version="1.0"><defs><g/><clipPath id="c194bc76c5"><rect x="0" width="528" y="0" height="172"/></clipPath><clipPath id="4690986803"><path d="M 127.238281 17.105469 L 302.738281 17.105469 L 302.738281 356.855469 L 127.238281 356.855469 Z M 127.238281 17.105469 " clip-rule="nonzero"/></clipPath><clipPath id="7703afb173"><path d="M 267.933594 17.105469 L 680.140625 17.105469 L 680.140625 323.105469 L 267.933594 323.105469 Z M 267.933594 17.105469 " clip-rule="nonzero"/></clipPath><clipPath id="7b390a24d2"><path d="M 532.996094 57.15625 L 681.605469 57.15625 L 681.605469 356.40625 L 532.996094 356.40625 Z M 532.996094 57.15625 " clip-rule="nonzero"/></clipPath><clipPath id="90e5d6f9a1"><path d="M 479.207031 244.421875 L 549.707031 244.421875 L 549.707031 356.855469 L 479.207031 356.855469 Z M 479.207031 244.421875 " clip-rule="nonzero"/></clipPath><clipPath id="570be13252"><path d="M 406.226562 244.421875 L 457.226562 244.421875 L 457.226562 356.855469 L 406.226562 356.855469 Z M 406.226562 244.421875 " clip-rule="nonzero"/></clipPath><clipPath id="f371cab2d9"><path d="M 327.742188 244.421875 L 381.742188 244.421875 L 381.742188 356.855469 L 327.742188 356.855469 Z M 327.742188 244.421875 " clip-rule="nonzero"/></clipPath><clipPath id="4c95acd1c5"><path d="M 579.53125 650.105469 L 641.03125 650.105469 L 641.03125 711.605469 L 579.53125 711.605469 Z M 579.53125 650.105469 " clip-rule="nonzero"/></clipPath><clipPath id="4179fc1095"><path d="M 610.304688 650.105469 C 593.308594 650.105469 579.53125 663.882812 579.53125 680.878906 C 579.53125 697.875 593.308594 711.652344 610.304688 711.652344 C 627.300781 711.652344 641.078125 697.875 641.078125 680.878906 C 641.078125 663.882812 627.300781 650.105469 610.304688 650.105469 Z M 610.304688 650.105469 " clip-rule="nonzero"/></clipPath><clipPath id="e8fb60e500"><rect x="0" width="268" y="0" height="172"/></clipPath><clipPath id="f41d46174e"><rect x="0" width="671" y="0" height="84"/></clipPath><clipPath id="6c3817d745"><path d="M 428.269531 742.429688 L 489.769531 742.429688 L 489.769531 803.929688 L 428.269531 803.929688 Z M 428.269531 742.429688 " clip-rule="nonzero"/></clipPath><clipPath id="b8d5830a41"><path d="M 459.042969 742.429688 C 442.046875 742.429688 428.269531 756.210938 428.269531 773.203125 C 428.269531 790.199219 442.046875 803.976562 459.042969 803.976562 C 476.039062 803.976562 489.816406 790.199219 489.816406 773.203125 C 489.816406 756.210938 476.039062 742.429688 459.042969 742.429688 Z M 459.042969 742.429688 " clip-rule="nonzero"/></clipPath><clipPath id="73368f1da4"><path d="M 345.652344 685.496094 L 407.152344 685.496094 L 407.152344 746.996094 L 345.652344 746.996094 Z M 345.652344 685.496094 " clip-rule="nonzero"/></clipPath><clipPath id="a24bceb4cc"><path d="M 376.425781 685.496094 C 359.429688 685.496094 345.652344 699.273438 345.652344 716.269531 C 345.652344 733.265625 359.429688 747.042969 376.425781 747.042969 C 393.421875 747.042969 407.199219 733.265625 407.199219 716.269531 C 407.199219 699.273438 393.421875 685.496094 376.425781 685.496094 Z M 376.425781 685.496094 " clip-rule="nonzero"/></clipPath><clipPath id="27ad8d22e9"><path d="M 204.71875 629.464844 L 266.21875 629.464844 L 266.21875 690.964844 L 204.71875 690.964844 Z M 204.71875 629.464844 " clip-rule="nonzero"/></clipPath><clipPath id="9e636d3391"><path d="M 235.492188 629.464844 C 218.496094 629.464844 204.71875 643.242188 204.71875 660.238281 C 204.71875 677.230469 218.496094 691.011719 235.492188 691.011719 C 252.488281 691.011719 266.265625 677.230469 266.265625 660.238281 C 266.265625 643.242188 252.488281 629.464844 235.492188 629.464844 Z M 235.492188 629.464844 " clip-rule="nonzero"/></clipPath></defs><g transform="matrix(1, 0, 0, 1, 9, 377)"><g clip-path="url(#c194bc76c5)"><g fill="#40affb" fill-opacity="1"><g transform="translate(8.310651, 119.44641)"><g><path d="M 42.359375 0 L -3.734375 -109.890625 L 24.515625 -109.890625 L 52.21875 -37.703125 L 79.921875 -109.890625 L 108.15625 -109.890625 L 62.078125 0 Z M 42.359375 0 "/></g></g></g><g fill="#40affb" fill-opacity="1"><g transform="translate(115.00293, 119.44641)"><g><path d="M 33.03125 -109.890625 L 33.03125 0 L 7.984375 0 L 7.984375 -109.890625 Z M 33.03125 -109.890625 "/></g></g></g><g fill="#40affb" fill-opacity="1"><g transform="translate(155.629096, 119.44641)"><g><path d="M 48.484375 -111.890625 C 54.429688 -111.890625 60.242188 -111.023438 65.921875 -109.296875 C 71.609375 -107.566406 75.832031 -105.859375 78.59375 -104.171875 L 82.578125 -101.5 L 72.46875 -81.515625 C 71.664062 -82.046875 70.550781 -82.734375 69.125 -83.578125 C 67.707031 -84.421875 65.046875 -85.550781 61.140625 -86.96875 C 57.234375 -88.394531 53.59375 -89.109375 50.21875 -89.109375 C 46.039062 -89.109375 42.816406 -88.21875 40.546875 -86.4375 C 38.285156 -84.664062 37.15625 -82.269531 37.15625 -79.25 C 37.15625 -77.738281 37.6875 -76.335938 38.75 -75.046875 C 39.820312 -73.765625 41.644531 -72.390625 44.21875 -70.921875 C 46.800781 -69.460938 49.066406 -68.285156 51.015625 -67.390625 C 52.972656 -66.503906 55.992188 -65.175781 60.078125 -63.40625 C 67.179688 -60.382812 73.238281 -56.273438 78.25 -51.078125 C 83.269531 -45.890625 85.78125 -40.007812 85.78125 -33.4375 C 85.78125 -27.125 84.644531 -21.613281 82.375 -16.90625 C 80.113281 -12.207031 77.007812 -8.523438 73.0625 -5.859375 C 69.113281 -3.191406 64.738281 -1.21875 59.9375 0.0625 C 55.144531 1.351562 49.953125 2 44.359375 2 C 39.554688 2 34.847656 1.507812 30.234375 0.53125 C 25.617188 -0.445312 21.753906 -1.664062 18.640625 -3.125 C 15.535156 -4.59375 12.738281 -6.035156 10.25 -7.453125 C 7.769531 -8.878906 5.953125 -10.082031 4.796875 -11.0625 L 3.0625 -12.515625 L 15.578125 -33.5625 C 16.648438 -32.675781 18.117188 -31.546875 19.984375 -30.171875 C 21.847656 -28.796875 25.15625 -26.953125 29.90625 -24.640625 C 34.65625 -22.328125 38.847656 -21.171875 42.484375 -21.171875 C 53.054688 -21.171875 58.34375 -24.769531 58.34375 -31.96875 C 58.34375 -33.476562 57.960938 -34.875 57.203125 -36.15625 C 56.453125 -37.445312 55.117188 -38.734375 53.203125 -40.015625 C 51.296875 -41.304688 49.609375 -42.328125 48.140625 -43.078125 C 46.679688 -43.835938 44.285156 -44.992188 40.953125 -46.546875 C 37.628906 -48.109375 35.164062 -49.285156 33.5625 -50.078125 C 26.90625 -53.367188 21.753906 -57.476562 18.109375 -62.40625 C 14.472656 -67.332031 12.65625 -72.640625 12.65625 -78.328125 C 12.65625 -88.179688 16.296875 -96.238281 23.578125 -102.5 C 30.859375 -108.757812 39.160156 -111.890625 48.484375 -111.890625 Z M 48.484375 -111.890625 "/></g></g></g><g fill="#40affb" fill-opacity="1"><g transform="translate(247.403228, 119.44641)"><g><path d="M 33.03125 -109.890625 L 33.03125 0 L 7.984375 0 L 7.984375 -109.890625 Z M 33.03125 -109.890625 "/></g></g></g><g fill="#40affb" fill-opacity="1"><g transform="translate(290.693579, 119.44641)"><g><path d="M 3.0625 -55.015625 C 3.0625 -70.910156 8.476562 -84.363281 19.3125 -95.375 C 30.144531 -106.382812 43.195312 -111.890625 58.46875 -111.890625 C 73.832031 -111.890625 86.882812 -106.40625 97.625 -95.4375 C 108.375 -84.46875 113.75 -70.992188 113.75 -55.015625 C 113.75 -38.941406 108.460938 -25.421875 97.890625 -14.453125 C 87.328125 -3.484375 74.1875 2 58.46875 2 C 42.394531 2 29.140625 -3.4375 18.703125 -14.3125 C 8.273438 -25.195312 3.0625 -38.765625 3.0625 -55.015625 Z M 30.109375 -55.015625 C 30.109375 -49.242188 30.992188 -43.984375 32.765625 -39.234375 C 34.546875 -34.484375 37.65625 -30.460938 42.09375 -27.171875 C 46.53125 -23.890625 51.988281 -22.25 58.46875 -22.25 C 67.800781 -22.25 74.84375 -25.441406 79.59375 -31.828125 C 84.34375 -38.222656 86.71875 -45.953125 86.71875 -55.015625 C 86.71875 -63.984375 84.296875 -71.6875 79.453125 -78.125 C 74.617188 -84.5625 67.625 -87.78125 58.46875 -87.78125 C 49.414062 -87.78125 42.425781 -84.5625 37.5 -78.125 C 32.570312 -71.6875 30.109375 -63.984375 30.109375 -55.015625 Z M 30.109375 -55.015625 "/></g></g></g><g fill="#40affb" fill-opacity="1"><g transform="translate(409.773177, 119.44641)"><g><path d="M 33.03125 -68.203125 L 33.03125 0 L 7.984375 0 L 7.984375 -109.890625 L 33.03125 -109.890625 L 76.71875 -41.6875 L 76.984375 -41.6875 L 76.984375 -109.890625 L 102.03125 -109.890625 L 102.03125 0 L 76.984375 0 L 33.296875 -68.203125 Z M 33.03125 -68.203125 "/></g></g></g></g></g><g clip-path="url(#4690986803)"><path fill="#3eb1fb" d="M 673.324219 221.183594 C 668.40625 209.5625 661.375 199.128906 652.414062 190.167969 C 643.457031 181.210938 633.023438 174.175781 621.402344 169.261719 C 612.445312 165.472656 603.082031 163.074219 593.453125 162.09375 C 592.503906 153.800781 590.386719 145.730469 587.117188 138.003906 C 582.691406 127.542969 576.359375 118.152344 568.296875 110.085938 C 560.234375 102.023438 550.84375 95.695312 540.382812 91.269531 C 529.546875 86.683594 518.042969 84.363281 506.191406 84.363281 C 496.867188 84.363281 487.78125 85.792969 479.066406 88.628906 C 467.15625 68.632812 450.613281 51.699219 430.785156 39.292969 C 407.585938 24.78125 380.792969 17.109375 353.300781 17.109375 C 333.554688 17.109375 314.394531 20.976562 296.351562 28.609375 C 278.929688 35.976562 263.285156 46.527344 249.851562 59.957031 C 236.417969 73.390625 225.871094 89.035156 218.503906 106.457031 C 210.898438 124.441406 207.027344 143.539062 207.003906 163.21875 C 186.484375 167.003906 167.699219 177.289062 153.3125 192.785156 C 136.507812 210.882812 127.25 234.457031 127.25 259.167969 C 127.25 272.292969 129.816406 285.035156 134.875 297.039062 C 139.757812 308.628906 146.753906 319.039062 155.660156 327.992188 C 164.566406 336.9375 174.941406 343.984375 186.503906 348.925781 C 198.359375 353.992188 210.949219 356.621094 223.929688 356.738281 C 224.074219 356.742188 224.21875 356.746094 224.363281 356.746094 L 583.417969 356.746094 C 596.589844 356.746094 609.367188 354.164062 621.402344 349.074219 C 633.023438 344.15625 643.460938 337.125 652.417969 328.167969 C 661.375 319.207031 668.410156 308.773438 673.324219 297.152344 C 678.417969 285.117188 680.996094 272.335938 680.996094 259.167969 C 680.996094 246 678.414062 233.21875 673.324219 221.183594 Z M 637.414062 313.167969 C 622.988281 327.589844 603.8125 335.53125 583.417969 335.53125 L 224.71875 335.53125 C 224.617188 335.53125 224.515625 335.527344 224.417969 335.527344 C 204.105469 335.417969 185.027344 327.429688 170.695312 313.027344 C 156.359375 298.621094 148.464844 279.492188 148.464844 259.167969 C 148.464844 239.828125 155.703125 221.378906 168.855469 207.21875 C 181.9375 193.132812 199.65625 184.546875 218.742188 183.042969 C 224.527344 182.585938 228.875 177.5625 228.492188 171.769531 C 228.308594 168.988281 228.214844 166.171875 228.214844 163.40625 C 228.214844 146.515625 231.523438 130.136719 238.042969 114.722656 C 244.339844 99.828125 253.359375 86.449219 264.851562 74.957031 C 276.34375 63.46875 289.722656 54.445312 304.613281 48.148438 C 320.03125 41.628906 336.410156 38.320312 353.300781 38.320312 C 376.808594 38.320312 399.710938 44.875 419.535156 57.277344 C 438.832031 69.351562 454.488281 86.433594 464.8125 106.679688 C 467.386719 111.734375 473.484375 113.863281 478.652344 111.515625 C 487.320312 107.574219 496.585938 105.578125 506.191406 105.578125 C 523.984375 105.578125 540.714844 112.503906 553.296875 125.089844 C 565.882812 137.671875 572.808594 154.402344 572.808594 172.195312 C 572.808594 178.054688 577.558594 182.800781 583.417969 182.800781 C 603.816406 182.800781 622.992188 190.746094 637.414062 205.167969 C 651.839844 219.59375 659.78125 238.769531 659.78125 259.164062 C 659.78125 279.566406 651.839844 298.742188 637.414062 313.167969 Z M 637.414062 313.167969 " fill-opacity="1" fill-rule="nonzero"/></g><g clip-path="url(#7703afb173)"><path fill="#3eb1fb" d="M 672.722656 221.183594 C 667.808594 209.5625 660.773438 199.128906 651.816406 190.167969 C 642.859375 181.210938 632.421875 174.175781 620.800781 169.261719 C 611.847656 165.472656 602.484375 163.074219 592.851562 162.09375 C 591.90625 153.800781 589.785156 145.730469 586.515625 138.003906 C 582.09375 127.542969 575.761719 118.152344 567.699219 110.085938 C 559.636719 102.023438 550.242188 95.695312 539.785156 91.269531 C 528.949219 86.683594 517.445312 84.363281 505.59375 84.363281 C 496.269531 84.363281 487.183594 85.792969 478.46875 88.628906 C 466.558594 68.632812 450.015625 51.699219 430.1875 39.292969 C 406.988281 24.78125 380.191406 17.109375 352.699219 17.109375 C 332.957031 17.109375 313.792969 20.976562 295.753906 28.609375 C 278.332031 35.976562 262.6875 46.527344 249.253906 59.957031 C 235.820312 73.390625 225.273438 89.035156 217.90625 106.457031 C 210.296875 124.441406 206.429688 143.539062 206.40625 163.21875 C 185.886719 167.003906 167.101562 177.289062 152.714844 192.785156 C 135.90625 210.882812 126.652344 234.457031 126.652344 259.167969 C 126.652344 272.292969 129.21875 285.035156 134.277344 297.039062 C 139.160156 308.628906 146.15625 319.039062 155.0625 327.992188 C 163.964844 336.9375 174.34375 343.984375 185.90625 348.925781 C 197.761719 353.992188 210.351562 356.621094 223.328125 356.738281 C 223.472656 356.742188 223.621094 356.746094 223.765625 356.746094 L 582.820312 356.746094 C 595.988281 356.746094 608.769531 354.164062 620.804688 349.074219 C 632.425781 344.15625 642.859375 337.125 651.820312 328.167969 C 660.777344 319.207031 667.8125 308.773438 672.726562 297.152344 C 677.816406 285.117188 680.398438 272.335938 680.398438 259.167969 C 680.398438 246 677.816406 233.21875 672.722656 221.183594 Z M 636.816406 313.167969 C 622.390625 327.589844 603.214844 335.53125 582.816406 335.53125 L 224.121094 335.53125 C 224.019531 335.53125 223.917969 335.527344 223.816406 335.527344 C 203.507812 335.417969 184.429688 327.429688 170.097656 313.027344 C 155.757812 298.621094 147.863281 279.492188 147.863281 259.167969 C 147.863281 239.828125 155.105469 221.378906 168.257812 207.21875 C 181.339844 193.132812 199.054688 184.546875 218.140625 183.042969 C 223.929688 182.585938 228.277344 177.5625 227.894531 171.769531 C 227.710938 168.988281 227.617188 166.171875 227.617188 163.40625 C 227.617188 146.515625 230.921875 130.136719 237.441406 114.722656 C 243.742188 99.828125 252.761719 86.449219 264.253906 74.957031 C 275.746094 63.46875 289.121094 54.445312 304.015625 48.148438 C 319.429688 41.628906 335.8125 38.320312 352.699219 38.320312 C 376.207031 38.320312 399.113281 44.875 418.9375 57.277344 C 438.234375 69.351562 453.890625 86.433594 464.210938 106.679688 C 466.789062 111.734375 472.886719 113.863281 478.050781 111.515625 C 486.71875 107.574219 495.984375 105.578125 505.59375 105.578125 C 523.386719 105.578125 540.117188 112.503906 552.699219 125.089844 C 565.28125 137.671875 572.210938 154.402344 572.210938 172.195312 C 572.210938 178.054688 576.960938 182.800781 582.816406 182.800781 C 603.214844 182.800781 622.390625 190.746094 636.816406 205.167969 C 651.238281 219.59375 659.179688 238.769531 659.179688 259.164062 C 659.183594 279.566406 651.238281 298.742188 636.816406 313.167969 Z M 636.816406 313.167969 " fill-opacity="1" fill-rule="nonzero"/></g><g clip-path="url(#7b390a24d2)"><path fill="#3eb1fb" d="M 674.191406 221.183594 C 669.273438 209.5625 662.242188 199.128906 653.28125 190.167969 C 644.324219 181.210938 633.890625 174.175781 622.269531 169.261719 C 613.316406 165.472656 603.949219 163.074219 594.320312 162.09375 C 593.371094 153.800781 591.253906 145.730469 587.984375 138.003906 C 583.558594 127.542969 577.226562 118.152344 569.164062 110.085938 C 561.101562 102.023438 551.710938 95.695312 541.25 91.269531 C 530.414062 86.683594 518.910156 84.363281 507.058594 84.363281 C 497.734375 84.363281 488.648438 85.792969 479.933594 88.628906 C 468.027344 68.632812 451.484375 51.699219 431.652344 39.292969 C 408.453125 24.78125 381.660156 17.109375 354.167969 17.109375 C 334.421875 17.109375 315.261719 20.976562 297.21875 28.609375 C 279.796875 35.976562 264.152344 46.527344 250.71875 59.957031 C 237.289062 73.390625 226.738281 89.035156 219.371094 106.457031 C 211.765625 124.441406 207.894531 143.539062 207.871094 163.21875 C 187.351562 167.003906 168.566406 177.289062 154.179688 192.785156 C 137.375 210.882812 128.117188 234.457031 128.117188 259.167969 C 128.117188 272.292969 130.683594 285.035156 135.742188 297.039062 C 140.628906 308.628906 147.621094 319.039062 156.527344 327.992188 C 165.433594 336.9375 175.8125 343.984375 187.371094 348.925781 C 199.226562 353.992188 211.816406 356.621094 224.796875 356.738281 C 224.941406 356.742188 225.085938 356.746094 225.234375 356.746094 L 584.285156 356.746094 C 597.457031 356.746094 610.234375 354.164062 622.273438 349.074219 C 633.894531 344.15625 644.328125 337.125 653.285156 328.167969 C 662.246094 319.207031 669.277344 308.773438 674.191406 297.152344 C 679.285156 285.117188 681.863281 272.335938 681.863281 259.167969 C 681.863281 246 679.28125 233.21875 674.191406 221.183594 Z M 638.28125 313.167969 C 623.859375 327.589844 604.679688 335.53125 584.285156 335.53125 L 225.585938 335.53125 C 225.488281 335.53125 225.386719 335.527344 225.285156 335.527344 C 204.972656 335.417969 185.894531 327.429688 171.5625 313.027344 C 157.226562 298.621094 149.332031 279.492188 149.332031 259.167969 C 149.332031 239.828125 156.570312 221.378906 169.722656 207.21875 C 182.804688 193.132812 200.523438 184.546875 219.609375 183.042969 C 225.394531 182.585938 229.742188 177.5625 229.359375 171.769531 C 229.175781 168.988281 229.082031 166.171875 229.082031 163.40625 C 229.082031 146.515625 232.390625 130.136719 238.910156 114.722656 C 245.207031 99.828125 254.230469 86.449219 265.71875 74.957031 C 277.210938 63.46875 290.589844 54.445312 305.484375 48.148438 C 320.898438 41.628906 337.277344 38.320312 354.167969 38.320312 C 377.675781 38.320312 400.578125 44.875 420.402344 57.277344 C 439.699219 69.351562 455.355469 86.433594 465.679688 106.679688 C 468.253906 111.734375 474.355469 113.863281 479.519531 111.515625 C 488.1875 107.574219 497.453125 105.578125 507.058594 105.578125 C 524.855469 105.578125 541.582031 112.503906 554.164062 125.089844 C 566.75 137.671875 573.675781 154.402344 573.675781 172.195312 C 573.675781 178.054688 578.425781 182.800781 584.285156 182.800781 C 604.683594 182.800781 623.859375 190.746094 638.28125 205.167969 C 652.707031 219.59375 660.648438 238.769531 660.648438 259.164062 C 660.648438 279.566406 652.707031 298.742188 638.28125 313.167969 Z M 638.28125 313.167969 " fill-opacity="1" fill-rule="nonzero"/></g><path stroke-linecap="butt" transform="matrix(0.000000001309, 0.75, -0.75, 0.000000001309, 460.87474, 203.383793)" fill="none" stroke-linejoin="miter" d="M -0.00130732 13.999654 L 232.029954 13.999655 " stroke="#3eb1fb" stroke-width="28" stroke-opacity="1" stroke-miterlimit="4"/><path stroke-linecap="butt" transform="matrix(0.000000001309, 0.75, -0.75, 0.000000001309, 388.584301, 202.269048)" fill="none" stroke-linejoin="miter" d="M 0.00064401 13.997818 L 232.026697 13.997819 " stroke="#3eb1fb" stroke-width="28" stroke-opacity="1" stroke-miterlimit="4"/><path stroke-linecap="butt" transform="matrix(0.000000001309, 0.75, -0.75, 0.000000001309, 316.297048, 277.998726)" fill="none" stroke-linejoin="miter" d="M 0.00169862 14.000232 L 131.053789 14.000232 " stroke="#3eb1fb" stroke-width="28" stroke-opacity="1" stroke-miterlimit="4"/><path stroke-linecap="butt" transform="matrix(0, 0.75, -0.75, 0, 543.495504, 277.998726)" fill="none" stroke-linejoin="miter" d="M 0.00169865 13.999215 L 131.053789 13.999215 " stroke="#3eb1fb" stroke-width="28" stroke-opacity="1" stroke-miterlimit="4"/><g clip-path="url(#90e5d6f9a1)"><path fill="#3eb1fb" d="M 672.722656 221.183594 C 667.808594 209.5625 660.773438 199.128906 651.816406 190.167969 C 642.859375 181.210938 632.421875 174.175781 620.800781 169.261719 C 611.847656 165.472656 602.484375 163.074219 592.851562 162.09375 C 591.90625 153.800781 589.785156 145.730469 586.515625 138.003906 C 582.09375 127.542969 575.761719 118.152344 567.699219 110.085938 C 559.636719 102.023438 550.242188 95.695312 539.785156 91.269531 C 528.949219 86.683594 517.445312 84.363281 505.59375 84.363281 C 496.269531 84.363281 487.183594 85.792969 478.46875 88.628906 C 466.558594 68.632812 450.015625 51.699219 430.1875 39.292969 C 406.988281 24.78125 380.191406 17.109375 352.699219 17.109375 C 332.957031 17.109375 313.792969 20.976562 295.753906 28.609375 C 278.332031 35.976562 262.6875 46.527344 249.253906 59.957031 C 235.820312 73.390625 225.273438 89.035156 217.90625 106.457031 C 210.296875 124.441406 206.429688 143.539062 206.40625 163.21875 C 185.886719 167.003906 167.101562 177.289062 152.714844 192.785156 C 135.90625 210.882812 126.652344 234.457031 126.652344 259.167969 C 126.652344 272.292969 129.21875 285.035156 134.277344 297.039062 C 139.160156 308.628906 146.15625 319.039062 155.0625 327.992188 C 163.964844 336.9375 174.34375 343.984375 185.90625 348.925781 C 197.761719 353.992188 210.351562 356.621094 223.328125 356.738281 C 223.472656 356.742188 223.621094 356.746094 223.765625 356.746094 L 582.820312 356.746094 C 595.988281 356.746094 608.769531 354.164062 620.804688 349.074219 C 632.425781 344.15625 642.859375 337.125 651.820312 328.167969 C 660.777344 319.207031 667.8125 308.773438 672.726562 297.152344 C 677.816406 285.117188 680.398438 272.335938 680.398438 259.167969 C 680.398438 246 677.816406 233.21875 672.722656 221.183594 Z M 636.816406 313.167969 C 622.390625 327.589844 603.214844 335.53125 582.816406 335.53125 L 224.121094 335.53125 C 224.019531 335.53125 223.917969 335.527344 223.816406 335.527344 C 203.507812 335.417969 184.429688 327.429688 170.097656 313.027344 C 155.757812 298.621094 147.863281 279.492188 147.863281 259.167969 C 147.863281 239.828125 155.105469 221.378906 168.257812 207.21875 C 181.339844 193.132812 199.054688 184.546875 218.140625 183.042969 C 223.929688 182.585938 228.277344 177.5625 227.894531 171.769531 C 227.710938 168.988281 227.617188 166.171875 227.617188 163.40625 C 227.617188 146.515625 230.921875 130.136719 237.441406 114.722656 C 243.742188 99.828125 252.761719 86.449219 264.253906 74.957031 C 275.746094 63.46875 289.121094 54.445312 304.015625 48.148438 C 319.429688 41.628906 335.8125 38.320312 352.699219 38.320312 C 376.207031 38.320312 399.113281 44.875 418.9375 57.277344 C 438.234375 69.351562 453.890625 86.433594 464.210938 106.679688 C 466.789062 111.734375 472.886719 113.863281 478.050781 111.515625 C 486.71875 107.574219 495.984375 105.578125 505.59375 105.578125 C 523.386719 105.578125 540.117188 112.503906 552.699219 125.089844 C 565.28125 137.671875 572.210938 154.402344 572.210938 172.195312 C 572.210938 178.054688 576.960938 182.800781 582.816406 182.800781 C 603.214844 182.800781 622.390625 190.746094 636.816406 205.167969 C 651.238281 219.59375 659.179688 238.769531 659.179688 259.164062 C 659.183594 279.566406 651.238281 298.742188 636.816406 313.167969 Z M 636.816406 313.167969 " fill-opacity="1" fill-rule="nonzero"/></g><g clip-path="url(#570be13252)"><path fill="#3eb1fb" d="M 580.558594 221.183594 C 575.640625 209.5625 568.609375 199.128906 559.648438 190.167969 C 550.691406 181.210938 540.257812 174.175781 528.636719 169.261719 C 519.679688 165.472656 510.316406 163.074219 500.6875 162.09375 C 499.738281 153.800781 497.621094 145.730469 494.351562 138.003906 C 489.925781 127.542969 483.59375 118.152344 475.53125 110.085938 C 467.46875 102.023438 458.078125 95.695312 447.617188 91.269531 C 436.78125 86.683594 425.277344 84.363281 413.425781 84.363281 C 404.101562 84.363281 395.015625 85.792969 386.300781 88.628906 C 374.390625 68.632812 357.847656 51.699219 338.019531 39.292969 C 314.820312 24.78125 288.027344 17.109375 260.535156 17.109375 C 240.789062 17.109375 221.628906 20.976562 203.585938 28.609375 C 186.164062 35.976562 170.519531 46.527344 157.085938 59.957031 C 143.652344 73.390625 133.105469 89.035156 125.738281 106.457031 C 118.132812 124.441406 114.261719 143.539062 114.238281 163.21875 C 93.71875 167.003906 74.933594 177.289062 60.546875 192.785156 C 43.742188 210.882812 34.484375 234.457031 34.484375 259.167969 C 34.484375 272.292969 37.050781 285.035156 42.109375 297.039062 C 46.992188 308.628906 53.988281 319.039062 62.894531 327.992188 C 71.800781 336.9375 82.175781 343.984375 93.738281 348.925781 C 105.59375 353.992188 118.183594 356.621094 131.164062 356.738281 C 131.308594 356.742188 131.453125 356.746094 131.597656 356.746094 L 490.652344 356.746094 C 503.824219 356.746094 516.601562 354.164062 528.636719 349.074219 C 540.257812 344.15625 550.695312 337.125 559.652344 328.167969 C 568.609375 319.207031 575.644531 308.773438 580.558594 297.152344 C 585.652344 285.117188 588.230469 272.335938 588.230469 259.167969 C 588.230469 246 585.648438 233.21875 580.558594 221.183594 Z M 544.648438 313.167969 C 530.222656 327.589844 511.046875 335.53125 490.652344 335.53125 L 131.953125 335.53125 C 131.851562 335.53125 131.75 335.527344 131.652344 335.527344 C 111.339844 335.417969 92.261719 327.429688 77.929688 313.027344 C 63.59375 298.621094 55.699219 279.492188 55.699219 259.167969 C 55.699219 239.828125 62.9375 221.378906 76.089844 207.21875 C 89.171875 193.132812 106.890625 184.546875 125.976562 183.042969 C 131.761719 182.585938 136.109375 177.5625 135.726562 171.769531 C 135.542969 168.988281 135.449219 166.171875 135.449219 163.40625 C 135.449219 146.515625 138.757812 130.136719 145.277344 114.722656 C 151.574219 99.828125 160.59375 86.449219 172.085938 74.957031 C 183.578125 63.46875 196.957031 54.445312 211.847656 48.148438 C 227.265625 41.628906 243.644531 38.320312 260.535156 38.320312 C 284.042969 38.320312 306.945312 44.875 326.769531 57.277344 C 346.066406 69.351562 361.722656 86.433594 372.046875 106.679688 C 374.621094 111.734375 380.71875 113.863281 385.886719 111.515625 C 394.554688 107.574219 403.820312 105.578125 413.425781 105.578125 C 431.21875 105.578125 447.949219 112.503906 460.53125 125.089844 C 473.117188 137.671875 480.042969 154.402344 480.042969 172.195312 C 480.042969 178.054688 484.792969 182.800781 490.652344 182.800781 C 511.050781 182.800781 530.226562 190.746094 544.648438 205.167969 C 559.074219 219.59375 567.015625 238.769531 567.015625 259.164062 C 567.015625 279.566406 559.074219 298.742188 544.648438 313.167969 Z M 544.648438 313.167969 " fill-opacity="1" fill-rule="nonzero"/></g><g clip-path="url(#f371cab2d9)"><path fill="#3eb1fb" d="M 504.824219 221.183594 C 499.910156 209.5625 492.875 199.128906 483.917969 190.167969 C 474.957031 181.210938 464.523438 174.175781 452.902344 169.261719 C 443.949219 165.472656 434.582031 163.074219 424.953125 162.09375 C 424.007812 153.800781 421.886719 145.730469 418.617188 138.003906 C 414.191406 127.542969 407.863281 118.152344 399.800781 110.085938 C 391.734375 102.023438 382.34375 95.695312 371.882812 91.269531 C 361.046875 86.683594 349.542969 84.363281 337.691406 84.363281 C 328.371094 84.363281 319.28125 85.792969 310.566406 88.628906 C 298.660156 68.632812 282.117188 51.699219 262.289062 39.292969 C 239.085938 24.78125 212.292969 17.109375 184.800781 17.109375 C 165.058594 17.109375 145.894531 20.976562 127.851562 28.609375 C 110.429688 35.976562 94.785156 46.527344 81.351562 59.957031 C 67.921875 73.390625 57.375 89.035156 50.003906 106.457031 C 42.398438 124.441406 38.527344 143.539062 38.503906 163.21875 C 17.988281 167.003906 -0.796875 177.289062 -15.1875 192.785156 C -31.992188 210.882812 -41.25 234.457031 -41.25 259.167969 C -41.25 272.292969 -38.683594 285.035156 -33.621094 297.039062 C -28.738281 308.628906 -21.746094 319.039062 -12.835938 327.992188 C -3.933594 336.9375 6.445312 343.984375 18.007812 348.925781 C 29.863281 353.992188 42.453125 356.621094 55.429688 356.738281 C 55.574219 356.742188 55.71875 356.746094 55.867188 356.746094 L 414.921875 356.746094 C 428.089844 356.746094 440.871094 354.164062 452.90625 349.074219 C 464.527344 344.15625 474.960938 337.125 483.917969 328.167969 C 492.878906 319.207031 499.910156 308.773438 504.828125 297.152344 C 509.917969 285.117188 512.5 272.335938 512.5 259.167969 C 512.5 246 509.914062 233.21875 504.824219 221.183594 Z M 468.914062 313.167969 C 454.492188 327.589844 435.316406 335.53125 414.917969 335.53125 L 56.222656 335.53125 C 56.121094 335.53125 56.019531 335.527344 55.917969 335.527344 C 35.605469 335.417969 16.527344 327.429688 2.195312 313.027344 C -12.140625 298.621094 -20.035156 279.492188 -20.035156 259.167969 C -20.035156 239.828125 -12.792969 221.378906 0.355469 207.21875 C 13.441406 193.132812 31.15625 184.546875 50.242188 183.042969 C 56.03125 182.585938 60.375 177.5625 59.992188 171.769531 C 59.808594 168.988281 59.71875 166.171875 59.71875 163.40625 C 59.71875 146.515625 63.023438 130.136719 69.542969 114.722656 C 75.84375 99.828125 84.863281 86.449219 96.355469 74.957031 C 107.84375 63.46875 121.222656 54.445312 136.117188 48.148438 C 151.53125 41.628906 167.910156 38.320312 184.800781 38.320312 C 208.308594 38.320312 231.214844 44.875 251.035156 57.277344 C 270.335938 69.351562 285.992188 86.433594 296.3125 106.679688 C 298.890625 111.734375 304.988281 113.863281 310.152344 111.515625 C 318.820312 107.574219 328.085938 105.578125 337.691406 105.578125 C 355.488281 105.578125 372.214844 112.503906 384.800781 125.089844 C 397.382812 137.671875 404.3125 154.402344 404.3125 172.195312 C 404.3125 178.054688 409.058594 182.800781 414.917969 182.800781 C 435.316406 182.800781 454.492188 190.746094 468.914062 205.167969 C 483.339844 219.59375 491.28125 238.769531 491.28125 259.164062 C 491.285156 279.566406 483.339844 298.742188 468.914062 313.167969 Z M 468.914062 313.167969 " fill-opacity="1" fill-rule="nonzero"/></g><path stroke-linecap="butt" transform="matrix(0, 0.75, -0.75, 0, 386.92563, 593.546702)" fill="none" stroke-linejoin="miter" d="M 0.000230481 13.999799 L 136.708571 13.999799 " stroke="#3eb1fb" stroke-width="28" stroke-opacity="1" stroke-miterlimit="4"/><path stroke-linecap="butt" transform="matrix(0, 0.75, -0.75, 0, 469.54546, 593.544542)" fill="none" stroke-linejoin="miter" d="M -0.00209785 13.998114 L 204.674996 13.998114 " stroke="#3eb1fb" stroke-width="28" stroke-opacity="1" stroke-miterlimit="4"/><path stroke-linecap="butt" transform="matrix(0.414543, 0.625023, -0.625023, 0.414543, 535.209577, 583.789503)" fill="none" stroke-linejoin="miter" d="M 7.98144 11.503727 C 63.664677 50.141449 110.24374 50.142112 147.714289 11.502836 " stroke="#3eb1fb" stroke-width="28" stroke-opacity="1" stroke-miterlimit="4"/><path stroke-linecap="butt" transform="matrix(-0.429006, 0.615186, -0.615186, -0.429006, 336.298638, 607.037749)" fill="none" stroke-linejoin="miter" d="M 8.220042 46.566724 C 68.087856 3.147307 104.999432 3.148349 118.95179 46.565578 " stroke="#3eb1fb" stroke-width="28" stroke-opacity="1" stroke-miterlimit="4"/><g clip-path="url(#4c95acd1c5)"><g clip-path="url(#4179fc1095)"><path stroke-linecap="butt" transform="matrix(0.75, 0, 0, 0.75, 579.529726, 650.104091)" fill="none" stroke-linejoin="miter" d="M 41.033284 0.00183661 C 18.371824 0.00183661 0.00203154 18.371629 0.00203154 41.033089 C 0.00203154 63.694548 18.371824 82.064341 41.033284 82.064341 C 63.694743 82.064341 82.064536 63.694548 82.064536 41.033089 C 82.064536 18.371629 63.694743 0.00183661 41.033284 0.00183661 Z M 41.033284 0.00183661 " stroke="#3eb1fb" stroke-width="34" stroke-opacity="1" stroke-miterlimit="4"/></g></g><g transform="matrix(1, 0, 0, 1, 530, 377)"><g clip-path="url(#e8fb60e500)"><g fill="#ffffff" fill-opacity="1"><g transform="translate(1.107262, 119.44641)"><g><path d="M 1.0625 -87.90625 L 1.0625 -109.890625 L 78.328125 -109.890625 L 78.328125 -87.90625 L 52.21875 -87.90625 L 52.21875 0 L 27.171875 0 L 27.171875 -87.90625 Z M 1.0625 -87.90625 "/></g></g></g><g fill="#ffffff" fill-opacity="1"><g transform="translate(82.758418, 119.44641)"><g><path d="M 70.859375 -109.890625 L 70.859375 -87.90625 L 33.03125 -87.90625 L 33.03125 -66.0625 L 69.265625 -66.0625 L 69.265625 -44.09375 L 33.03125 -44.09375 L 33.03125 -21.984375 L 70.859375 -21.984375 L 70.859375 0 L 7.984375 0 L 7.984375 -109.890625 Z M 70.859375 -109.890625 "/></g></g></g><g fill="#ffffff" fill-opacity="1"><g transform="translate(162.278361, 119.44641)"><g><path d="M 66.46875 -22.640625 C 70.289062 -22.640625 74 -23.21875 77.59375 -24.375 C 81.1875 -25.53125 83.828125 -26.640625 85.515625 -27.703125 L 88.046875 -29.4375 L 98.703125 -8.125 C 98.347656 -7.851562 97.859375 -7.492188 97.234375 -7.046875 C 96.617188 -6.609375 95.175781 -5.789062 92.90625 -4.59375 C 90.644531 -3.394531 88.222656 -2.351562 85.640625 -1.46875 C 83.066406 -0.582031 79.691406 0.210938 75.515625 0.921875 C 71.347656 1.640625 67.046875 2 62.609375 2 C 52.390625 2 42.707031 -0.503906 33.5625 -5.515625 C 24.414062 -10.535156 17.046875 -17.441406 11.453125 -26.234375 C 5.859375 -35.023438 3.0625 -44.53125 3.0625 -54.75 C 3.0625 -62.46875 4.703125 -69.878906 7.984375 -76.984375 C 11.273438 -84.085938 15.648438 -90.171875 21.109375 -95.234375 C 26.566406 -100.296875 32.9375 -104.335938 40.21875 -107.359375 C 47.507812 -110.378906 54.972656 -111.890625 62.609375 -111.890625 C 69.710938 -111.890625 76.257812 -111.046875 82.25 -109.359375 C 88.25 -107.671875 92.488281 -105.984375 94.96875 -104.296875 L 98.703125 -101.765625 L 88.046875 -80.453125 C 87.421875 -80.984375 86.488281 -81.625 85.25 -82.375 C 84.007812 -83.132812 81.523438 -84.132812 77.796875 -85.375 C 74.066406 -86.625 70.289062 -87.25 66.46875 -87.25 C 60.425781 -87.25 55.007812 -86.269531 50.21875 -84.3125 C 45.425781 -82.363281 41.628906 -79.789062 38.828125 -76.59375 C 36.023438 -73.394531 33.890625 -69.953125 32.421875 -66.265625 C 30.960938 -62.578125 30.234375 -58.828125 30.234375 -55.015625 C 30.234375 -46.660156 33.363281 -39.175781 39.625 -32.5625 C 45.882812 -25.945312 54.832031 -22.640625 66.46875 -22.640625 Z M 66.46875 -22.640625 "/></g></g></g></g></g><g transform="matrix(1, 0, 0, 1, 82, 500)"><g clip-path="url(#f41d46174e)"><g fill="#ffffff" fill-opacity="1"><g transform="translate(0.717514, 61.614646)"><g><path d="M 18.875 -43.578125 C 21.195312 -43.578125 23.460938 -43.238281 25.671875 -42.5625 C 27.890625 -41.882812 29.535156 -41.21875 30.609375 -40.5625 L 32.15625 -39.53125 L 28.21875 -31.75 C 27.90625 -31.957031 27.472656 -32.222656 26.921875 -32.546875 C 26.367188 -32.878906 25.332031 -33.320312 23.8125 -33.875 C 22.289062 -34.425781 20.875 -34.703125 19.5625 -34.703125 C 17.9375 -34.703125 16.679688 -34.351562 15.796875 -33.65625 C 14.910156 -32.96875 14.46875 -32.035156 14.46875 -30.859375 C 14.46875 -30.273438 14.675781 -29.734375 15.09375 -29.234375 C 15.507812 -28.734375 16.21875 -28.195312 17.21875 -27.625 C 18.226562 -27.050781 19.113281 -26.59375 19.875 -26.25 C 20.632812 -25.90625 21.804688 -25.382812 23.390625 -24.6875 C 26.160156 -23.507812 28.519531 -21.910156 30.46875 -19.890625 C 32.425781 -17.867188 33.40625 -15.578125 33.40625 -13.015625 C 33.40625 -10.566406 32.960938 -8.425781 32.078125 -6.59375 C 31.203125 -4.757812 29.992188 -3.320312 28.453125 -2.28125 C 26.910156 -1.238281 25.207031 -0.46875 23.34375 0.03125 C 21.476562 0.53125 19.457031 0.78125 17.28125 0.78125 C 15.40625 0.78125 13.566406 0.585938 11.765625 0.203125 C 9.972656 -0.171875 8.472656 -0.644531 7.265625 -1.21875 C 6.054688 -1.789062 4.96875 -2.351562 4 -2.90625 C 3.03125 -3.457031 2.320312 -3.925781 1.875 -4.3125 L 1.1875 -4.875 L 6.0625 -13.078125 C 6.476562 -12.722656 7.050781 -12.28125 7.78125 -11.75 C 8.507812 -11.21875 9.796875 -10.5 11.640625 -9.59375 C 13.492188 -8.695312 15.128906 -8.25 16.546875 -8.25 C 20.660156 -8.25 22.71875 -9.648438 22.71875 -12.453125 C 22.71875 -13.035156 22.570312 -13.578125 22.28125 -14.078125 C 21.988281 -14.585938 21.46875 -15.09375 20.71875 -15.59375 C 19.976562 -16.09375 19.320312 -16.488281 18.75 -16.78125 C 18.175781 -17.070312 17.238281 -17.519531 15.9375 -18.125 C 14.644531 -18.726562 13.691406 -19.1875 13.078125 -19.5 C 10.484375 -20.78125 8.472656 -22.378906 7.046875 -24.296875 C 5.628906 -26.222656 4.921875 -28.289062 4.921875 -30.5 C 4.921875 -34.34375 6.335938 -37.484375 9.171875 -39.921875 C 12.015625 -42.359375 15.25 -43.578125 18.875 -43.578125 Z M 18.875 -43.578125 "/></g></g></g><g fill="#ffffff" fill-opacity="1"><g transform="translate(51.134018, 61.614646)"><g><path d="M 1.1875 -21.421875 C 1.1875 -27.609375 3.296875 -32.847656 7.515625 -37.140625 C 11.734375 -41.429688 16.816406 -43.578125 22.765625 -43.578125 C 28.753906 -43.578125 33.835938 -41.441406 38.015625 -37.171875 C 42.203125 -32.898438 44.296875 -27.648438 44.296875 -21.421875 C 44.296875 -15.160156 42.238281 -9.894531 38.125 -5.625 C 34.007812 -1.351562 28.890625 0.78125 22.765625 0.78125 C 16.515625 0.78125 11.351562 -1.335938 7.28125 -5.578125 C 3.21875 -9.816406 1.1875 -15.097656 1.1875 -21.421875 Z M 11.71875 -21.421875 C 11.71875 -19.171875 12.0625 -17.117188 12.75 -15.265625 C 13.445312 -13.421875 14.660156 -11.859375 16.390625 -10.578125 C 18.117188 -9.296875 20.242188 -8.65625 22.765625 -8.65625 C 26.398438 -8.65625 29.140625 -9.898438 30.984375 -12.390625 C 32.835938 -14.890625 33.765625 -17.898438 33.765625 -21.421875 C 33.765625 -24.910156 32.820312 -27.910156 30.9375 -30.421875 C 29.050781 -32.929688 26.328125 -34.1875 22.765625 -34.1875 C 19.242188 -34.1875 16.519531 -32.929688 14.59375 -30.421875 C 12.675781 -27.910156 11.71875 -24.910156 11.71875 -21.421875 Z M 11.71875 -21.421875 "/></g></g></g><g fill="#ffffff" fill-opacity="1"><g transform="translate(112.183685, 61.614646)"><g><path d="M 12.859375 -42.796875 L 12.859375 -8.5625 L 27.59375 -8.5625 L 27.59375 0 L 3.109375 0 L 3.109375 -42.796875 Z M 12.859375 -42.796875 "/></g></g></g><g fill="#ffffff" fill-opacity="1"><g transform="translate(157.050196, 61.614646)"><g><path d="M 36 -42.796875 L 36 -15.203125 C 36 -9.941406 34.582031 -5.960938 31.75 -3.265625 C 28.914062 -0.566406 24.765625 0.78125 19.296875 0.78125 C 13.828125 0.78125 9.675781 -0.566406 6.84375 -3.265625 C 4.007812 -5.960938 2.59375 -9.941406 2.59375 -15.203125 L 2.59375 -42.796875 L 12.34375 -42.796875 L 12.34375 -18.046875 C 12.34375 -14.585938 12.882812 -12.179688 13.96875 -10.828125 C 15.0625 -9.484375 16.835938 -8.8125 19.296875 -8.8125 C 21.753906 -8.8125 23.523438 -9.484375 24.609375 -10.828125 C 25.703125 -12.179688 26.25 -14.585938 26.25 -18.046875 L 26.25 -42.796875 Z M 36 -42.796875 "/></g></g></g><g fill="#ffffff" fill-opacity="1"><g transform="translate(209.541493, 61.614646)"><g><path d="M 25.890625 -8.8125 C 27.367188 -8.8125 28.804688 -9.035156 30.203125 -9.484375 C 31.609375 -9.941406 32.640625 -10.378906 33.296875 -10.796875 L 34.296875 -11.46875 L 38.4375 -3.171875 C 38.300781 -3.066406 38.109375 -2.925781 37.859375 -2.75 C 37.617188 -2.570312 37.054688 -2.25 36.171875 -1.78125 C 35.296875 -1.320312 34.351562 -0.914062 33.34375 -0.5625 C 32.34375 -0.21875 31.03125 0.0859375 29.40625 0.359375 C 27.78125 0.640625 26.101562 0.78125 24.375 0.78125 C 23.238281 0.78125 22.203125 0.710938 21.265625 0.578125 L 20.390625 3.265625 C 22.015625 3.265625 23.535156 3.726562 24.953125 4.65625 C 26.367188 5.59375 27.078125 6.894531 27.078125 8.5625 C 27.078125 10.394531 26.425781 11.96875 25.125 13.28125 C 23.832031 14.59375 21.851562 15.25 19.1875 15.25 C 17.8125 15.25 16.457031 14.882812 15.125 14.15625 C 13.789062 13.4375 12.796875 12.726562 12.140625 12.03125 L 11.203125 10.953125 L 14.9375 8.140625 C 15.070312 8.316406 15.269531 8.539062 15.53125 8.8125 C 15.789062 9.09375 16.289062 9.457031 17.03125 9.90625 C 17.78125 10.351562 18.5 10.578125 19.1875 10.578125 C 20.09375 10.578125 20.75 10.378906 21.15625 9.984375 C 21.570312 9.585938 21.78125 9.113281 21.78125 8.5625 C 21.78125 7.800781 21.453125 7.21875 20.796875 6.8125 C 20.140625 6.414062 19.398438 6.21875 18.578125 6.21875 C 18.015625 6.21875 17.507812 6.253906 17.0625 6.328125 C 16.613281 6.398438 16.320312 6.46875 16.1875 6.53125 L 15.921875 6.6875 L 15.40625 6.28125 L 17.53125 -0.265625 C 12.832031 -1.710938 8.929688 -4.375 5.828125 -8.25 C 2.734375 -12.125 1.1875 -16.484375 1.1875 -21.328125 C 1.1875 -24.328125 1.828125 -27.210938 3.109375 -29.984375 C 4.390625 -32.753906 6.09375 -35.125 8.21875 -37.09375 C 10.34375 -39.0625 12.820312 -40.632812 15.65625 -41.8125 C 18.5 -42.988281 21.40625 -43.578125 24.375 -43.578125 C 27.144531 -43.578125 29.695312 -43.25 32.03125 -42.59375 C 34.363281 -41.9375 36.015625 -41.28125 36.984375 -40.625 L 38.4375 -39.625 L 34.296875 -31.328125 C 34.046875 -31.535156 33.675781 -31.785156 33.1875 -32.078125 C 32.707031 -32.378906 31.738281 -32.769531 30.28125 -33.25 C 28.832031 -33.738281 27.367188 -33.984375 25.890625 -33.984375 C 23.535156 -33.984375 21.421875 -33.601562 19.546875 -32.84375 C 17.679688 -32.082031 16.203125 -31.078125 15.109375 -29.828125 C 14.023438 -28.578125 13.195312 -27.234375 12.625 -25.796875 C 12.0625 -24.367188 11.78125 -22.910156 11.78125 -21.421875 C 11.78125 -18.171875 13 -15.253906 15.4375 -12.671875 C 17.875 -10.097656 21.359375 -8.8125 25.890625 -8.8125 Z M 25.890625 -8.8125 "/></g></g></g><g fill="#ffffff" fill-opacity="1"><g transform="translate(264.159356, 61.614646)"><g><path d="M 22.25 -49.484375 C 20.863281 -50.140625 19.550781 -50.46875 18.3125 -50.46875 C 17.820312 -50.46875 17.378906 -50.269531 16.984375 -49.875 C 16.585938 -49.476562 16.320312 -49.070312 16.1875 -48.65625 L 15.984375 -48.09375 L 10.734375 -48.09375 C 10.773438 -48.332031 10.835938 -48.648438 10.921875 -49.046875 C 11.003906 -49.441406 11.226562 -50.148438 11.59375 -51.171875 C 11.957031 -52.191406 12.375 -53.097656 12.84375 -53.890625 C 13.3125 -54.691406 13.984375 -55.410156 14.859375 -56.046875 C 15.742188 -56.691406 16.722656 -57.015625 17.796875 -57.015625 C 18.378906 -57.015625 19.117188 -56.898438 20.015625 -56.671875 C 20.921875 -56.453125 21.6875 -56.21875 22.3125 -55.96875 L 23.1875 -55.609375 C 24.570312 -54.953125 25.882812 -54.625 27.125 -54.625 C 27.613281 -54.625 28.054688 -54.820312 28.453125 -55.21875 C 28.847656 -55.613281 29.113281 -56.019531 29.25 -56.4375 L 29.46875 -57.015625 L 34.703125 -57.015625 C 34.671875 -56.765625 34.609375 -56.441406 34.515625 -56.046875 C 34.429688 -55.648438 34.207031 -54.941406 33.84375 -53.921875 C 33.476562 -52.898438 33.0625 -51.988281 32.59375 -51.1875 C 32.132812 -50.394531 31.460938 -49.679688 30.578125 -49.046875 C 29.691406 -48.410156 28.71875 -48.09375 27.65625 -48.09375 C 27.0625 -48.09375 26.3125 -48.203125 25.40625 -48.421875 C 24.507812 -48.648438 23.753906 -48.882812 23.140625 -49.125 Z M 1.1875 -21.421875 C 1.1875 -27.609375 3.296875 -32.847656 7.515625 -37.140625 C 11.734375 -41.429688 16.816406 -43.578125 22.765625 -43.578125 C 28.753906 -43.578125 33.835938 -41.441406 38.015625 -37.171875 C 42.203125 -32.898438 44.296875 -27.648438 44.296875 -21.421875 C 44.296875 -15.160156 42.238281 -9.894531 38.125 -5.625 C 34.007812 -1.351562 28.890625 0.78125 22.765625 0.78125 C 16.515625 0.78125 11.351562 -1.335938 7.28125 -5.578125 C 3.21875 -9.816406 1.1875 -15.097656 1.1875 -21.421875 Z M 11.71875 -21.421875 C 11.71875 -19.171875 12.0625 -17.117188 12.75 -15.265625 C 13.445312 -13.421875 14.660156 -11.859375 16.390625 -10.578125 C 18.117188 -9.296875 20.242188 -8.65625 22.765625 -8.65625 C 26.398438 -8.65625 29.140625 -9.898438 30.984375 -12.390625 C 32.835938 -14.890625 33.765625 -17.898438 33.765625 -21.421875 C 33.765625 -24.910156 32.820312 -27.910156 30.9375 -30.421875 C 29.050781 -32.929688 26.328125 -34.1875 22.765625 -34.1875 C 19.242188 -34.1875 16.519531 -32.929688 14.59375 -30.421875 C 12.675781 -27.910156 11.71875 -24.910156 11.71875 -21.421875 Z M 11.71875 -21.421875 "/></g></g></g><g fill="#ffffff" fill-opacity="1"><g transform="translate(325.209023, 61.614646)"><g><path d="M 27.59375 -42.796875 L 27.59375 -34.234375 L 12.859375 -34.234375 L 12.859375 -25.734375 L 26.96875 -25.734375 L 26.96875 -17.171875 L 12.859375 -17.171875 L 12.859375 -8.5625 L 27.59375 -8.5625 L 27.59375 0 L 3.109375 0 L 3.109375 -42.796875 Z M 27.59375 -42.796875 "/></g></g></g><g fill="#ffffff" fill-opacity="1"><g transform="translate(370.853597, 61.614646)"><g><path d="M 18.875 -43.578125 C 21.195312 -43.578125 23.460938 -43.238281 25.671875 -42.5625 C 27.890625 -41.882812 29.535156 -41.21875 30.609375 -40.5625 L 32.15625 -39.53125 L 28.21875 -31.75 C 27.90625 -31.957031 27.472656 -32.222656 26.921875 -32.546875 C 26.367188 -32.878906 25.332031 -33.320312 23.8125 -33.875 C 22.289062 -34.425781 20.875 -34.703125 19.5625 -34.703125 C 17.9375 -34.703125 16.679688 -34.351562 15.796875 -33.65625 C 14.910156 -32.96875 14.46875 -32.035156 14.46875 -30.859375 C 14.46875 -30.273438 14.675781 -29.734375 15.09375 -29.234375 C 15.507812 -28.734375 16.21875 -28.195312 17.21875 -27.625 C 18.226562 -27.050781 19.113281 -26.59375 19.875 -26.25 C 20.632812 -25.90625 21.804688 -25.382812 23.390625 -24.6875 C 26.160156 -23.507812 28.519531 -21.910156 30.46875 -19.890625 C 32.425781 -17.867188 33.40625 -15.578125 33.40625 -13.015625 C 33.40625 -10.566406 32.960938 -8.425781 32.078125 -6.59375 C 31.203125 -4.757812 29.992188 -3.320312 28.453125 -2.28125 C 26.910156 -1.238281 25.207031 -0.46875 23.34375 0.03125 C 21.476562 0.53125 19.457031 0.78125 17.28125 0.78125 C 15.40625 0.78125 13.566406 0.585938 11.765625 0.203125 C 9.972656 -0.171875 8.472656 -0.644531 7.265625 -1.21875 C 6.054688 -1.789062 4.96875 -2.351562 4 -2.90625 C 3.03125 -3.457031 2.320312 -3.925781 1.875 -4.3125 L 1.1875 -4.875 L 6.0625 -13.078125 C 6.476562 -12.722656 7.050781 -12.28125 7.78125 -11.75 C 8.507812 -11.21875 9.796875 -10.5 11.640625 -9.59375 C 13.492188 -8.695312 15.128906 -8.25 16.546875 -8.25 C 20.660156 -8.25 22.71875 -9.648438 22.71875 -12.453125 C 22.71875 -13.035156 22.570312 -13.578125 22.28125 -14.078125 C 21.988281 -14.585938 21.46875 -15.09375 20.71875 -15.59375 C 19.976562 -16.09375 19.320312 -16.488281 18.75 -16.78125 C 18.175781 -17.070312 17.238281 -17.519531 15.9375 -18.125 C 14.644531 -18.726562 13.691406 -19.1875 13.078125 -19.5 C 10.484375 -20.78125 8.472656 -22.378906 7.046875 -24.296875 C 5.628906 -26.222656 4.921875 -28.289062 4.921875 -30.5 C 4.921875 -34.34375 6.335938 -37.484375 9.171875 -39.921875 C 12.015625 -42.359375 15.25 -43.578125 18.875 -43.578125 Z M 18.875 -43.578125 "/></g></g></g><g fill="#ffffff" fill-opacity="1"><g transform="translate(421.270102, 61.614646)"><g/></g></g><g fill="#ffffff" fill-opacity="1"><g transform="translate(450.990853, 61.614646)"><g><path d="M 27.59375 -42.796875 L 27.59375 -34.234375 L 12.859375 -34.234375 L 12.859375 -25.734375 L 26.96875 -25.734375 L 26.96875 -17.171875 L 12.859375 -17.171875 L 12.859375 -8.5625 L 27.59375 -8.5625 L 27.59375 0 L 3.109375 0 L 3.109375 -42.796875 Z M 27.59375 -42.796875 "/></g></g></g><g fill="#ffffff" fill-opacity="1"><g transform="translate(496.635427, 61.614646)"><g><path d="M 38.484375 0 L 36.46875 -25.359375 L 36.203125 -25.359375 L 27.4375 -0.265625 L 21.625 -0.265625 L 12.859375 -25.359375 L 12.609375 -25.359375 L 10.578125 0 L 0.828125 0 L 4.671875 -42.796875 L 15.046875 -42.796875 L 24.53125 -18.109375 L 34.03125 -42.796875 L 44.40625 -42.796875 L 48.25 0 Z M 38.484375 0 "/></g></g></g><g fill="#ffffff" fill-opacity="1"><g transform="translate(561.264041, 61.614646)"><g/></g></g><g fill="#ffffff" fill-opacity="1"><g transform="translate(588.495081, 61.614646)"><g><path d="M 0.421875 -34.234375 L 0.421875 -42.796875 L 30.5 -42.796875 L 30.5 -34.234375 L 20.328125 -34.234375 L 20.328125 0 L 10.578125 0 L 10.578125 -34.234375 Z M 0.421875 -34.234375 "/></g></g></g><g fill="#ffffff" fill-opacity="1"><g transform="translate(634.969559, 61.614646)"><g><path d="M 12.859375 -42.796875 L 12.859375 0 L 3.109375 0 L 3.109375 -42.796875 Z M 12.859375 -42.796875 "/></g></g></g></g></g><g clip-path="url(#6c3817d745)"><g clip-path="url(#b8d5830a41)"><path stroke-linecap="butt" transform="matrix(0.75, 0, 0, 0.75, 428.269926, 742.431367)" fill="none" stroke-linejoin="miter" d="M 41.030726 -0.00223887 C 18.369266 -0.00223887 -0.000526272 18.372762 -0.000526272 41.029013 C -0.000526272 63.690473 18.369266 82.060265 41.030726 82.060265 C 63.692185 82.060265 82.061978 63.690473 82.061978 41.029013 C 82.061978 18.372762 63.692185 -0.00223887 41.030726 -0.00223887 Z M 41.030726 -0.00223887 " stroke="#3eb1fb" stroke-width="34" stroke-opacity="1" stroke-miterlimit="4"/></g></g><g clip-path="url(#73368f1da4)"><g clip-path="url(#a24bceb4cc)"><path stroke-linecap="butt" transform="matrix(0.75, 0, 0, 0.75, 345.652311, 685.497178)" fill="none" stroke-linejoin="miter" d="M 41.031296 -0.00144502 C 18.369836 -0.00144502 0.0000437857 18.368348 0.0000437857 41.029807 C 0.0000437857 63.691267 18.369836 82.061059 41.031296 82.061059 C 63.692755 82.061059 82.062548 63.691267 82.062548 41.029807 C 82.062548 18.368348 63.692755 -0.00144502 41.031296 -0.00144502 Z M 41.031296 -0.00144502 " stroke="#3eb1fb" stroke-width="34" stroke-opacity="1" stroke-miterlimit="4"/></g></g><g clip-path="url(#27ad8d22e9)"><g clip-path="url(#9e636d3391)"><path stroke-linecap="butt" transform="matrix(0.75, 0, 0, 0.75, 204.719715, 629.462916)" fill="none" stroke-linejoin="miter" d="M 41.029966 0.00256989 C 18.368506 0.00256989 -0.0012864 18.372362 -0.0012864 41.033822 C -0.0012864 63.690073 18.368506 82.065074 41.029966 82.065074 C 63.691425 82.065074 82.061218 63.690073 82.061218 41.033822 C 82.061218 18.372362 63.691425 0.00256989 41.029966 0.00256989 Z M 41.029966 0.00256989 " stroke="#3eb1fb" stroke-width="34" stroke-opacity="1" stroke-miterlimit="4"/></g></g></svg>